<?xml version="1.0" encoding="utf-8"?>
<!-- Generator: Adobe Illustrator 26.5.0, SVG Export Plug-In . SVG Version: 6.00 Build 0)  -->
<svg version="1.1" id="Layer_1" xmlns="http://www.w3.org/2000/svg" xmlns:xlink="http://www.w3.org/1999/xlink" x="0px" y="0px"
	 viewBox="0 0 512 512" style="enable-background:new 0 0 512 512;" xml:space="preserve">
<style type="text/css">
	.st0{fill:url(#SVGID_1_);}
	.st1{fill:url(#SVGID_00000140698756553591289720000002074769343838195372_);}
	.st2{fill:#CD151E;}
	.st3{fill:#FA5153;}
	.st4{fill:#ACACAC;}
	.st5{fill:#EEEEEE;}
	.st6{fill:none;}
	.st7{fill:#E9E9E9;}
</style>
<g>
	
		<linearGradient id="SVGID_1_" gradientUnits="userSpaceOnUse" x1="-223.1164" y1="-25.6274" x2="-221.7137" y2="-25.6274" gradientTransform="matrix(0 -365 -365 0 -9098 -80925.5)">
		<stop  offset="0" style="stop-color:#DBDBDA"/>
		<stop  offset="0.25" style="stop-color:#DBDBDA"/>
		<stop  offset="1" style="stop-color:#FFFFFF"/>
	</linearGradient>
	<path class="st0" d="M222.9,21.46c11.22-1.68,22.72-2.52,34.51-2.52c130.74,0,236.78,106.05,236.78,236.78
		c0,119.51-88.65,218.41-203.68,234.54c-11.22,1.68-22.72,2.52-34.51,2.52C125.26,492.78,19.22,386.74,19.22,256
		C19.22,136.49,107.73,37.59,222.9,21.46 M256,0C114.6,0,0,114.6,0,256s114.6,256,256,256s256-114.6,256-256S397.4,0,256,0"/>
	
		<radialGradient id="SVGID_00000177442638958804218190000007483747801641602182_" cx="-221.8727" cy="-25.2007" r="1.4027" gradientTransform="matrix(214.7512 0 0 214.7512 47949.0117 5625.7104)" gradientUnits="userSpaceOnUse">
		<stop  offset="0" style="stop-color:#69BEFF"/>
		<stop  offset="1" style="stop-color:#0072C4"/>
	</radialGradient>
	<path style="fill:url(#SVGID_00000177442638958804218190000007483747801641602182_);" d="M256,19.22c-11.22,0-22.3,0.84-33.1,2.24
		C108.43,38.15,20.62,136.77,20.62,255.86c0,130.74,106.05,236.78,236.78,236.78c11.22,0,22.3-0.84,33.1-2.24
		c114.46-16.69,202.28-115.31,202.28-234.26C492.78,125.26,386.74,19.22,256,19.22"/>
	<polyline class="st2" points="417.74,94.26 229.07,228.37 285.04,284.05 417.74,94.26 	"/>
	<polygon class="st3" points="229.21,227.95 257.4,255.86 417.74,94.26 	"/>
	<polygon class="st4" points="229.21,227.95 285.18,283.63 96.37,417.74 	"/>
	<polygon class="st5" points="96.37,417.74 257.4,255.86 229.21,227.95 	"/>
	<line class="st6" x1="383.23" y1="442" x2="383.23" y2="442"/>
	<path class="st7" d="M400.2,430.78c-0.56,0.42-1.26,0.7-1.96,0.7C398.94,431.48,399.64,431.34,400.2,430.78"/>
	<path class="st7" d="M400.48,430.64c0,0-0.14,0.14-0.28,0.14C400.34,430.78,400.34,430.64,400.48,430.64"/>
	<path class="st7" d="M323.89,422.08c-0.7,0.56-0.98,1.54-0.84,2.38C322.91,423.63,323.33,422.65,323.89,422.08"/>
	<path class="st7" d="M431.2,399.78C431.2,399.78,431.2,399.92,431.2,399.78C431.2,399.92,431.2,399.78,431.2,399.78"/>
	<path class="st7" d="M431.34,399.64c-0.14,0.14-0.14,0.14-0.28,0.28C431.2,399.78,431.34,399.64,431.34,399.64"/>
	<path class="st7" d="M432.04,397.82c0,0.56-0.28,1.26-0.7,1.68C431.9,399.08,432.04,398.52,432.04,397.82"/>
	<path class="st7" d="M474.83,302.99c0.14,0,0.28,0,0.42,0h0.14h-0.14C475.11,302.99,474.97,302.99,474.83,302.99"/>
	<path class="st7" d="M481.56,278.3c0,0.14,0,0.28,0,0.28C481.56,278.44,481.56,278.44,481.56,278.3"/>
	<path class="st7" d="M481.56,234.4L481.56,234.4c0,0.14,0,0.28,0,0.42C481.56,234.68,481.56,234.54,481.56,234.4"/>
	<path class="st7" d="M473,192.46c-0.28,0.7-0.98,1.26-1.68,1.54l-17.53,5.75c-0.14,0-0.14,0-0.28,0.14c0.14,0,0.28,0,0.42-0.14
		l17.53-5.75C472.16,193.72,472.72,193.16,473,192.46"/>
	<path class="st7" d="M409.46,157.95c-0.42,0.28-0.84,0.42-1.4,0.42C408.48,158.37,409.04,158.23,409.46,157.95"/>
	<path class="st7" d="M385.33,100.02c0.56,0.42,1.12,0.7,1.68,0.7C386.45,100.58,385.89,100.44,385.33,100.02"/>
	<path class="st7" d="M385.19,99.73c0.14,0.14,0.14,0.14,0.28,0.28C385.33,99.88,385.19,99.88,385.19,99.73"/>
	<path class="st7" d="M302.99,36.61c0,0.14,0,0.42,0,0.56C302.99,37.03,302.99,36.89,302.99,36.61"/>
	<path class="st7" d="M234.12,481.98c-0.14,0-0.28,0-0.28,0c-1.82-0.14-2.95-1.54-2.95-3.23l1.4-18.66c0.14-1.68,1.4-2.81,2.95-2.81
		c0.14,0,0.28,0,0.42,0c1.82,0.14,2.95,1.54,2.95,3.23l-1.4,18.66C237.06,480.72,235.8,481.98,234.12,481.98"/>
	<path class="st7" d="M279,481.84c-1.68,0-3.09-1.12-3.23-2.67l-2.38-18.38c-0.14-1.54,0.98-3.23,2.81-3.37c0.14,0,0.28,0,0.42,0
		c1.68,0,3.09,1.12,3.23,2.67l2.38,18.38c0.14,1.54-0.98,3.23-2.81,3.37C279.29,481.84,279.15,481.84,279,481.84"/>
	<path class="st7" d="M321.51,473.14c-1.26,0-2.38-0.7-2.95-1.96l-5.75-17.53c-0.42-1.54,0.42-3.37,1.96-4.07
		c0.42-0.14,0.7-0.14,1.12-0.14c1.26,0,2.38,0.7,2.95,1.96l5.75,17.53c0.14,0.28,0.14,0.7,0.14,0.98c0,0.84-0.42,1.68-0.98,2.24
		c-0.28,0.28-0.7,0.56-1.12,0.7C322.21,473.14,321.93,473.14,321.51,473.14"/>
	<path class="st7" d="M190.77,473.42c-0.28,0-0.42,0-0.7-0.14c-1.54-0.42-2.81-2.24-2.24-3.79l5.05-17.96
		c0.28-1.4,1.54-2.24,2.95-2.24c0.28,0,0.56,0,0.84,0.14c1.54,0.42,2.81,2.24,2.24,3.79l-5.05,17.96c-0.14,0.56-0.42,0.98-0.7,1.26
		C192.46,473.14,191.61,473.42,190.77,473.42"/>
	<path class="st7" d="M255.58,482.82c-1.82,0-3.23-1.4-3.23-2.95v-41.8c0-1.54,1.54-2.95,3.23-2.95c1.82,0,3.23,1.4,3.23,2.95v41.8
		C258.81,481.42,257.4,482.82,255.58,482.82"/>
	<path class="st7" d="M350.26,438.64c-0.84-1.4-0.42-3.23,1.26-4.21c0.56-0.28,1.12-0.42,1.68-0.42c0.98,0,1.96,0.42,2.52,1.4
		l9.26,16.13c0.84,1.4,0.42,3.37-1.26,4.21c-0.56,0.28-1.12,0.42-1.68,0.42c-0.98,0-1.96-0.42-2.52-1.4L350.26,438.64"/>
	<path class="st7" d="M150.09,456.59c-0.42,0-0.98-0.14-1.4-0.42c-1.54-0.84-2.24-2.67-1.4-4.21l8.42-16.55
		c0.56-1.12,1.68-1.68,2.81-1.68c0.42,0,0.98,0.14,1.4,0.42c1.54,0.84,2.24,2.67,1.4,4.21l-8.42,16.55
		C152.2,455.89,151.22,456.59,150.09,456.59"/>
	<path class="st7" d="M211.95,478.47c-0.28,0-0.42,0-0.7-0.14c-1.82-0.42-2.81-1.96-2.67-3.65l8.14-40.96
		c0.42-1.4,1.68-2.38,3.37-2.38c0.14,0,0.28,0,0.42,0c1.82,0.42,2.81,1.96,2.67,3.65l-8.14,40.96
		C214.62,477.35,213.36,478.47,211.95,478.47"/>
	<path class="st7" d="M288.96,434.99c-0.42-1.54,0.56-3.23,2.38-3.65c0.28,0,0.42-0.14,0.7-0.14c1.54,0,2.81,1.12,3.09,2.52
		l8.42,40.96c0.42,1.54-0.84,3.37-2.38,3.65c-0.28,0-0.42,0.14-0.7,0.14c-0.56,0-1.12-0.14-1.54-0.42c-0.84-0.42-1.4-1.12-1.54-1.96
		L288.96,434.99"/>
	<path class="st7" d="M342.13,465.57c-1.26,0-2.38-0.7-2.95-1.82l-16.13-38.58c-0.56-1.4,0.14-3.23,1.82-4.07
		c0.42-0.14,0.84-0.28,1.26-0.28c1.26,0,2.38,0.7,2.95,1.82l16.13,38.58c0.56,1.54-0.14,3.37-1.82,4.07
		C342.97,465.57,342.55,465.57,342.13,465.57"/>
	<path class="st7" d="M169.73,465.57c-0.42,0-0.84-0.14-1.4-0.28c-1.54-0.56-2.38-2.38-1.82-4.07l15.99-38.58
		c0.56-1.12,1.68-1.96,2.95-1.96c0.42,0,0.84,0.14,1.26,0.28c1.54,0.56,2.38,2.38,1.82,4.07l-15.99,38.58
		C172.12,465.01,170.99,465.57,169.73,465.57"/>
	<path class="st7" d="M398.38,432.04c-0.84,0-1.68-0.42-2.38-0.98l-12.2-14.03c-0.98-1.4-0.98-3.37,0.42-4.35
		c0.7-0.56,1.4-0.84,2.1-0.84c0.84,0,1.68,0.42,2.38,0.98l12.2,14.03c1.26,1.26,0.98,3.23-0.42,4.35
		C399.78,431.76,399.08,432.04,398.38,432.04"/>
	<path class="st7" d="M380.42,445.09c-0.98,0-1.96-0.42-2.67-1.4l-23.15-34.65c-0.98-1.54-0.56-3.37,0.98-4.35
		c0.56-0.42,1.12-0.56,1.82-0.56c0.98,0,1.96,0.42,2.67,1.4l23.15,34.65c0.98,1.4,0.56,3.37-0.98,4.35
		C381.69,444.95,381.12,445.09,380.42,445.09"/>
	<path class="st7" d="M131.02,444.81c-0.56,0-1.26-0.14-1.82-0.56c-1.4-0.98-1.82-2.95-0.98-4.35l23.15-34.65
		c0.56-0.84,1.68-1.4,2.67-1.4c0.56,0,1.26,0.14,1.82,0.56c1.4,0.98,1.82,2.95,0.98,4.35l-23.15,34.65
		C132.98,444.25,132,444.81,131.02,444.81"/>
	<path class="st7" d="M429.38,401.04c-0.7,0-1.4-0.14-1.96-0.56l-14.59-11.36c-1.4-0.98-1.54-2.95-0.56-4.35
		c0.56-0.84,1.54-1.26,2.38-1.26c0.7,0,1.4,0.14,1.96,0.56l14.59,11.36c1.4,0.98,1.54,2.95,0.56,4.35
		C431.2,400.62,430.36,401.04,429.38,401.04"/>
	<path class="st7" d="M82.48,400.62c-0.84,0-1.82-0.42-2.52-1.12c-1.26-1.4-0.98-3.37,0.14-4.35l14.17-12.06
		c0.56-0.56,1.26-0.84,1.96-0.84c0.84,0,1.82,0.42,2.52,1.12c1.26,1.4,0.98,3.37-0.14,4.35l-14.17,12.06
		C83.88,400.34,83.18,400.62,82.48,400.62"/>
	<path class="st7" d="M414.37,417.32c-0.84,0-1.54-0.28-2.24-0.84l-29.6-29.46c-1.4-1.26-1.4-3.23,0-4.35
		c0.56-0.56,1.4-0.84,2.24-0.84s1.54,0.28,2.24,0.84l29.6,29.46c1.26,1.26,1.26,3.23,0,4.35
		C416.05,417.03,415.21,417.32,414.37,417.32"/>
	<path class="st7" d="M97.07,416.47c-0.84,0-1.54-0.28-2.24-0.84c-1.26-1.26-1.26-3.23,0-4.35l29.6-29.46
		c0.56-0.56,1.4-0.84,2.24-0.84c0.84,0,1.54,0.28,2.24,0.84c1.26,1.26,1.26,3.23,0,4.35l-29.6,29.46
		C98.61,416.19,97.77,416.47,97.07,416.47"/>
	<path class="st7" d="M442,383.65c-0.56,0-1.12-0.14-1.54-0.42l-34.79-23.15c-1.54-0.98-1.82-2.95-0.84-4.35
		c0.7-0.98,1.68-1.4,2.81-1.4c0.56,0,1.12,0.14,1.54,0.42l34.79,23.15c1.4,0.98,1.82,2.81,0.84,4.35
		C444.11,383.09,442.99,383.65,442,383.65"/>
	<path class="st7" d="M69.44,382.95c-0.98,0-2.1-0.56-2.67-1.54c-0.98-1.4-0.56-3.37,0.84-4.35l34.79-23.15
		c0.56-0.42,1.12-0.56,1.68-0.56c0.98,0,2.1,0.56,2.67,1.54c0.98,1.4,0.56,3.37-0.84,4.35l-34.79,23.15
		C70.7,382.81,70.14,382.95,69.44,382.95"/>
	<path class="st7" d="M435.55,356.02c-1.54-0.56-2.24-2.67-1.4-4.21c0.56-1.12,1.68-1.68,2.81-1.68c0.42,0,0.98,0.14,1.4,0.42
		l16.55,8.42c1.54,0.84,2.24,2.67,1.4,4.21c-0.56,1.12-1.68,1.68-2.81,1.68c-0.42,0-0.98-0.14-1.4-0.42L435.55,356.02"/>
	<path class="st7" d="M55.13,361.07c0-1.12,0.42-2.1,1.4-2.67l16.13-9.26c0.42-0.28,0.98-0.42,1.4-0.42c1.12,0,2.24,0.56,2.81,1.54
		c0.84,1.54,0.42,3.37-0.98,4.21l-16.13,9.26c-0.42,0.28-0.98,0.42-1.4,0.42c0,0,0,0-0.14,0c0,0,0,0-0.14,0
		c-0.98,0-2.1-0.56-2.67-1.54C55.27,362.05,55.13,361.49,55.13,361.07"/>
	<path class="st7" d="M462.48,345.21c-0.42,0-0.7,0-1.12-0.14l-38.58-16.13c-1.54-0.84-2.24-2.67-1.54-4.21
		c0.42-1.26,1.68-1.96,2.95-1.96c0.42,0,0.7,0,1.12,0.14l38.58,15.99c1.4,0.56,1.96,1.82,1.82,3.37c0,0.28-0.14,0.56-0.14,0.84
		C464.87,344.51,463.75,345.21,462.48,345.21"/>
	<path class="st7" d="M46.01,341.01c0-1.26,0.56-2.38,1.82-2.95l38.58-15.99c0.42-0.14,0.7-0.14,1.12-0.14
		c1.26,0,2.38,0.7,2.95,1.96c0.56,1.54,0,3.37-1.54,4.21l-38.58,15.99c-0.42,0.14-0.7,0.14-1.12,0.14c-1.26,0-2.38-0.7-2.95-1.96
		C46.01,341.85,46.01,341.43,46.01,341.01"/>
	<path class="st7" d="M470.48,324.31c-0.28,0-0.56,0-0.84-0.14l-17.96-5.05c-1.54-0.42-2.67-1.96-2.24-3.79
		c0.28-1.26,1.54-2.38,2.95-2.38c0.28,0,0.56,0,0.84,0.14l17.96,5.05c0.56,0.14,0.98,0.42,1.26,0.7c0.84,0.7,1.12,1.96,0.84,3.09
		C473,323.33,471.74,324.31,470.48,324.31"/>
	<path class="st7" d="M41.66,323.75c-1.26,0-2.52-0.84-3.09-2.24c-0.56-1.54,0.14-3.37,1.96-4.07l17.53-5.75
		c0.28,0,0.56-0.14,0.84-0.14c1.4,0,2.67,0.84,3.23,2.1c0.56,1.54-0.14,3.37-1.96,4.07l-17.53,5.75
		C42.36,323.75,42.08,323.75,41.66,323.75"/>
	<path class="st7" d="M475.25,303.41c-0.14,0-0.28,0-0.42,0l-40.96-8.14c-1.54-0.42-2.67-1.96-2.38-3.79
		c0.42-1.68,1.68-2.67,3.23-2.67c0.14,0,0.28,0,0.42,0l40.96,8.14c1.54,0.42,2.81,1.96,2.38,3.79
		C478.05,302.43,476.65,303.41,475.25,303.41"/>
	<path class="st7" d="M34.79,295.98c0.28-0.14,0.7-0.28,0.98-0.42l40.96-8c0.14,0,0.42-0.14,0.56-0.14c1.4,0,2.67,1.12,2.95,2.67
		c0.42,1.82-0.84,3.37-2.38,3.79l-40.96,8c-0.14,0-0.42,0.14-0.56,0.14c-1.4,0-2.67-1.12-2.95-2.67c0-0.28-0.14-0.42-0.14-0.7
		C33.24,297.52,33.81,296.54,34.79,295.98"/>
	<path class="st7" d="M478.61,281.67l-18.66-1.4c-1.54-0.14-2.81-1.82-2.81-3.37c0.14-1.82,1.54-2.95,3.23-2.95l18.66,1.4
		c1.54,0.14,2.95,1.54,2.81,3.37C481.56,280.41,480.16,281.67,478.61,281.67"/>
	<path class="st7" d="M33.24,280.69c-1.54,0-2.81-1.12-3.09-2.81c-0.14-1.82,0.98-3.37,2.67-3.65l18.38-2.24c0.14,0,0.28,0,0.28,0
		c1.54,0,2.81,1.12,3.09,2.81c0.14,1.82-0.98,3.37-2.67,3.65l-18.38,2.24C33.53,280.55,33.39,280.69,33.24,280.69"/>
	<path class="st7" d="M437.94,259.79c-1.54,0-2.95-1.4-2.95-3.23s1.4-3.23,2.95-3.23h41.8c1.54,0,2.95,1.4,2.95,3.23
		s-1.4,3.23-2.95,3.23H437.94"/>
	<path class="st7" d="M32.26,258.67c-1.54,0-2.95-1.4-2.95-3.23c0-1.82,1.4-3.23,2.95-3.23h41.8c1.54,0,2.95,1.4,2.95,3.23
		c0,1.82-1.4,3.23-2.95,3.23H32.26"/>
	<path class="st7" d="M460.52,240.01c-1.54,0-2.81-1.12-3.09-2.81c-0.14-1.82,0.98-3.37,2.67-3.65l18.38-2.24c0.14,0,0.28,0,0.28,0
		c1.54,0,2.81,1.12,3.09,2.81c0.14,1.82-0.98,3.37-2.67,3.65l-18.38,2.24C460.66,240.01,460.52,240.01,460.52,240.01"/>
	<path class="st7" d="M51.62,238.19l-18.66-1.4c-1.54-0.14-2.95-1.54-2.81-3.37c0.14-1.82,1.54-2.95,3.23-2.95l18.66,1.4
		c1.54,0.14,2.81,1.82,2.81,3.37C54.57,237.06,53.16,238.19,51.62,238.19"/>
	<path class="st7" d="M434.57,224.44c-1.4,0-2.67-1.12-2.95-2.67c-0.42-1.82,0.84-3.37,2.38-3.79l40.96-8
		c0.14,0,0.42-0.14,0.56-0.14c1.4,0,2.67,1.12,2.95,2.67c0,0.28,0.14,0.42,0.14,0.7c0.14,1.12-0.56,2.24-1.54,2.67
		c-0.28,0.14-0.7,0.28-0.98,0.42l-40.96,8C434.99,224.44,434.85,224.44,434.57,224.44"/>
	<path class="st7" d="M77.43,223.18c-0.14,0-0.28,0-0.42,0l-40.96-8.14c-1.54-0.42-2.81-1.96-2.38-3.79
		c0.42-1.68,1.68-2.67,3.23-2.67c0.14,0,0.28,0,0.42,0l40.96,8.14c1.54,0.42,2.67,1.96,2.38,3.79
		C80.24,222.19,78.83,223.18,77.43,223.18"/>
	<path class="st7" d="M469.36,188.39c0.28-0.14,0.56-0.14,0.84-0.14c0,0,0,0,0.14,0c1.26,0,2.52,0.84,3.09,2.24
		c0.56,1.54-0.14,3.37-1.96,4.07l-17.53,5.75c-0.28,0-0.56,0.14-0.84,0.14c-1.4,0-2.67-0.84-3.23-2.1
		c-0.56-1.54,0.14-3.37,1.96-4.07L469.36,188.39"/>
	<path class="st7" d="M39.56,193.02c-0.84-0.7-1.12-1.96-0.84-3.09c0.28-1.26,1.54-2.38,2.95-2.38c0.28,0,0.56,0,0.84,0.14
		l17.96,5.05c1.54,0.42,2.67,1.96,2.24,3.79c-0.28,1.26-1.54,2.38-2.95,2.38c-0.28,0-0.56,0-0.84-0.14l-17.96-5.05
		C40.26,193.72,39.84,193.44,39.56,193.02"/>
	<path class="st7" d="M424.47,190.21c-1.26,0-2.38-0.7-2.95-1.96c-0.56-1.54,0-3.37,1.54-4.21l38.58-15.99
		c0.42-0.14,0.7-0.14,1.12-0.14c1.26,0,2.38,0.7,2.95,1.96c0.14,0.42,0.28,0.84,0.28,1.26c0,1.26-0.56,2.38-1.82,2.95l-38.58,15.99
		C425.17,190.07,424.89,190.21,424.47,190.21"/>
	<path class="st7" d="M46.57,168.75c0.42-1.26,1.68-1.96,2.95-1.96c0.42,0,0.7,0,1.12,0.14l38.58,15.99
		c1.54,0.84,2.24,2.67,1.54,4.21c-0.42,1.26-1.68,1.96-2.95,1.96c-0.42,0-0.7,0-1.12-0.14l-38.58-15.99
		c-1.4-0.56-1.96-1.82-1.82-3.37C46.43,169.31,46.43,169.03,46.57,168.75"/>
	<path class="st7" d="M453.65,147.85C453.65,147.85,453.79,147.85,453.65,147.85c1.12,0,2.1,0.56,2.67,1.54
		c0.28,0.56,0.42,1.12,0.42,1.54c0,1.12-0.42,2.1-1.4,2.67l-16.13,9.26c-0.42,0.28-0.98,0.42-1.4,0.42c-1.12,0-2.24-0.56-2.81-1.54
		c-0.84-1.54-0.42-3.37,0.98-4.21l16.13-9.26C452.66,147.99,453.08,147.85,453.65,147.85"/>
	<path class="st7" d="M75.05,162.02c-0.42,0-0.98-0.14-1.4-0.42l-16.55-8.42c-1.54-0.84-2.24-2.67-1.4-4.21
		c0.56-1.12,1.68-1.68,2.81-1.68c0.42,0,0.98,0.14,1.4,0.42l16.55,8.42c1.54,0.56,2.24,2.67,1.4,4.21
		C77.29,161.32,76.17,162.02,75.05,162.02"/>
	<path class="st7" d="M407.92,158.79c-0.98,0-2.1-0.56-2.67-1.54c-0.98-1.4-0.56-3.37,0.84-4.35l34.79-23.15
		c0.56-0.42,1.12-0.56,1.68-0.56c0.98,0,2.1,0.56,2.67,1.54c0.98,1.4,0.56,3.37-0.84,4.35l-34.79,23.15
		C409.04,158.51,408.48,158.79,407.92,158.79"/>
	<path class="st7" d="M104.36,157.81c-0.56,0-1.12-0.14-1.54-0.42l-34.65-23.15c-1.4-0.98-1.82-2.81-0.84-4.35
		c0.7-0.98,1.68-1.4,2.81-1.4c0.56,0,1.12,0.14,1.54,0.42l34.65,23.15c1.54,0.98,1.82,2.95,0.84,4.35
		C106.61,157.39,105.49,157.81,104.36,157.81"/>
	<path class="st7" d="M415.63,129.75c-0.84,0-1.82-0.42-2.52-1.12c-1.26-1.4-0.98-3.37,0.14-4.35l14.17-12.06
		c0.56-0.56,1.26-0.84,1.96-0.84c0.84,0,1.82,0.42,2.52,1.12c1.26,1.4,0.98,3.37-0.14,4.35l-14.17,12.06
		C417.03,129.47,416.33,129.75,415.63,129.75"/>
	<path class="st7" d="M97.35,128.63c-0.7,0-1.4-0.14-1.96-0.56L80.8,116.71c-1.4-0.98-1.54-2.95-0.56-4.35
		c0.56-0.84,1.54-1.26,2.38-1.26c0.7,0,1.4,0.14,1.96,0.56l14.59,11.36c1.4,0.98,1.54,2.95,0.56,4.35
		C99.17,128.21,98.33,128.63,97.35,128.63"/>
	<path class="st7" d="M127.23,130.31c-0.84,0-1.54-0.28-2.24-0.84l-29.6-29.46c-1.26-1.26-1.26-3.23,0-4.35
		c0.56-0.56,1.4-0.84,2.24-0.84s1.54,0.28,2.24,0.84l29.6,29.46c1.4,1.26,1.4,3.23,0,4.35
		C128.77,130.03,128.07,130.31,127.23,130.31"/>
	<path class="st7" d="M387.3,101c-0.7,0-1.4-0.28-2.1-0.84c-1.4-0.98-1.54-2.95-0.56-4.35l11.64-14.59c0.56-0.84,1.4-1.12,2.38-1.12
		c0.7,0,1.4,0.28,2.1,0.84c1.4,0.98,1.54,2.95,0.56,4.35l-11.64,14.59C388.98,100.58,388.14,101,387.3,101"/>
	<path class="st7" d="M125.69,100.16c-0.84,0-1.68-0.42-2.38-0.98l-12.2-14.03c-1.26-1.26-0.98-3.23,0.42-4.35
		c0.7-0.56,1.4-0.84,2.1-0.84c0.84,0,1.68,0.42,2.38,0.98l12.2,14.03c0.98,1.4,0.98,3.37-0.42,4.35
		C127.09,100.02,126.39,100.16,125.69,100.16"/>
	<path class="st7" d="M357.98,108.15c-0.56,0-1.26-0.14-1.82-0.56c-1.4-0.98-1.82-2.95-0.98-4.35l23.15-34.65
		c0.56-0.84,1.54-1.4,2.52-1.4c0.56,0,1.26,0.14,1.82,0.56c1.4,0.98,1.82,2.95,0.98,4.35l-23.15,34.65
		C359.94,107.73,358.96,108.15,357.98,108.15"/>
	<path class="st7" d="M154.58,107.73c-0.98,0-1.96-0.42-2.67-1.4l-23.15-34.65c-0.98-1.4-0.56-3.37,0.98-4.35
		c0.56-0.42,1.12-0.56,1.82-0.56c0.98,0,1.96,0.42,2.67,1.4l23.15,34.65c0.98,1.54,0.56,3.37-0.98,4.35
		C155.84,107.59,155.28,107.73,154.58,107.73"/>
	<path class="st7" d="M150.09,55.83L150.09,55.83c0.98,0,1.96,0.42,2.52,1.4l9.26,16.13c0.84,1.4,0.42,3.23-1.26,4.21
		c-0.56,0.28-1.12,0.42-1.68,0.42c-0.98,0-1.96-0.42-2.52-1.4l-9.26-16.13c-0.84-1.4-0.42-3.37,1.26-4.21
		C148.97,55.97,149.53,55.83,150.09,55.83"/>
	<path class="st7" d="M353.63,78.41c-0.42,0-0.98-0.14-1.4-0.42c-1.54-0.84-2.24-2.67-1.4-4.21l8.42-16.55
		c0.56-1.12,1.68-1.68,2.81-1.68c0.42,0,0.98,0.14,1.4,0.42c1.54,0.84,2.24,2.67,1.4,4.21l-8.42,16.55
		C355.88,77.71,354.75,78.41,353.63,78.41"/>
	<path class="st7" d="M186,91.04c-1.26,0-2.38-0.7-2.95-1.82l-16.13-38.58c-0.56-1.54,0.14-3.37,1.82-4.07
		c0.42-0.14,0.84-0.28,1.26-0.28c1.26,0,2.38,0.7,2.95,1.82l16.13,38.58c0.56,1.4-0.14,3.23-1.82,4.07
		C186.84,90.9,186.42,91.04,186,91.04"/>
	<path class="st7" d="M326.56,91.18c-0.42,0-0.84-0.14-1.26-0.28c-1.54-0.56-2.38-2.38-1.82-4.07l15.99-38.58
		c0.42-1.12,1.54-1.82,2.81-1.82c0.42,0,0.84,0.14,1.4,0.28c1.54,0.56,2.38,2.38,1.82,4.07L329.5,89.35
		C328.8,90.34,327.68,91.18,326.56,91.18"/>
	<path class="st7" d="M188.25,39.7c0.28-0.28,0.7-0.56,1.12-0.7c0.42-0.14,0.7-0.14,1.12-0.14c1.26,0,2.38,0.7,2.95,1.96l5.75,17.53
		c0.42,1.54-0.42,3.37-1.96,4.07c-0.42,0.14-0.7,0.14-1.12,0.14c-1.26,0-2.38-0.7-2.95-1.96l-5.75-17.53
		c-0.14-0.28-0.14-0.7-0.14-0.98C187.13,41.24,187.55,40.26,188.25,39.7"/>
	<path class="st7" d="M318.98,39.56c0.56-0.56,1.4-0.98,2.38-0.98c0.28,0,0.42,0,0.7,0.14c1.54,0.42,2.81,2.24,2.24,3.79
		l-5.05,17.96c-0.28,1.4-1.54,2.24-2.95,2.24c-0.28,0-0.56,0-0.84-0.14c-1.54-0.42-2.81-2.24-2.24-3.79l5.05-17.96
		C318.28,40.26,318.56,39.84,318.98,39.56"/>
	<path class="st7" d="M219.95,80.66c-1.54,0-2.81-1.12-3.09-2.52l-8.42-40.96c-0.42-1.54,0.84-3.37,2.38-3.65
		c0.28,0,0.42-0.14,0.7-0.14c0.56,0,1.12,0.14,1.54,0.42c0.84,0.42,1.4,1.12,1.54,1.96l8.42,40.96c0.42,1.54-0.56,3.23-2.38,3.65
		C220.37,80.66,220.09,80.66,219.95,80.66"/>
	<path class="st7" d="M291.91,80.66c-0.14,0-0.28,0-0.42,0c-1.82-0.42-2.81-1.96-2.67-3.65l8.14-40.96c0.28-1.4,1.54-2.52,3.09-2.52
		c0.28,0,0.42,0,0.7,0.14c1.82,0.42,2.81,1.96,2.67,3.65l-8.14,40.96C294.86,79.68,293.45,80.66,291.91,80.66"/>
	<path class="st7" d="M235.38,54.57c-1.68,0-3.09-1.12-3.23-2.67l-2.38-18.38c-0.14-1.54,0.98-3.23,2.81-3.37c0.14,0,0.28,0,0.42,0
		c1.68,0,3.09,1.12,3.23,2.67l2.38,18.38c0.14,1.54-0.98,3.23-2.81,3.37C235.66,54.57,235.52,54.57,235.38,54.57"/>
	<path class="st7" d="M276.76,54.57c-0.14,0-0.28,0-0.42,0c-1.82-0.14-2.95-1.54-2.95-3.23l1.4-18.66c0.14-1.54,1.4-2.81,3.09-2.81
		c0.14,0,0.28,0,0.28,0c1.82,0.14,2.95,1.54,2.95,3.23l-1.4,18.66C279.57,53.44,278.44,54.57,276.76,54.57"/>
	<path class="st7" d="M256.42,77.01c-1.82,0-3.23-1.4-3.23-2.95v-41.8c0-1.54,1.4-2.95,3.23-2.95c1.82,0,3.23,1.4,3.23,2.95v41.8
		C259.65,75.61,257.96,77.01,256.42,77.01"/>
</g>
</svg>
