<?xml version="1.0" standalone="no"?>
<!DOCTYPE svg PUBLIC "-//W3C//DTD SVG 20010904//EN"
 "http://www.w3.org/TR/2001/REC-SVG-20010904/DTD/svg10.dtd">
<svg version="1.0" xmlns="http://www.w3.org/2000/svg"
 width="80.000000pt" height="80.000000pt" viewBox="0 0 80.000000 80.000000"
 preserveAspectRatio="xMidYMid meet">

<g transform="translate(0.000000,80.000000) scale(0.100000,-0.100000)"
fill="#000000" stroke="none">
<path d="M42 757 c-23 -23 -42 -52 -42 -62 0 -12 55 -75 137 -157 l138 -138
-138 -138 c-82 -82 -137 -145 -137 -157 0 -26 79 -105 104 -105 13 0 72 51
158 137 l138 138 138 -138 c86 -86 145 -137 158 -137 25 0 104 79 104 105 0
12 -55 75 -137 157 l-138 138 138 138 c86 86 137 145 137 158 0 25 -79 104
-105 104 -12 0 -75 -55 -157 -137 l-138 -138 -138 138 c-86 86 -145 137 -158
137 -11 0 -39 -19 -62 -43z"/>
</g>
</svg>
