<svg width="397" height="396" viewBox="0 0 397 396" fill="none" xmlns="http://www.w3.org/2000/svg">
<rect x="7.54348" y="7.04348" width="381.913" height="381.913" rx="190.957" fill="url(#paint0_linear_1829_16631)"/>
<path fill-rule="evenodd" clip-rule="evenodd" d="M195.851 297.031H198.348C200.678 297.031 202.259 296.865 203.091 296.532C224.894 289.708 242.868 276.184 257.015 255.959C271.162 235.741 278.235 213.399 278.235 188.934V141.75C278.235 137.59 277.03 133.845 274.62 130.516C272.203 127.188 269.081 124.774 265.253 123.276L205.338 100.808C203.008 99.976 200.678 99.5599 198.348 99.5599C196.018 99.5599 193.688 99.976 191.358 100.808L131.442 123.276C127.614 124.774 124.495 127.188 122.085 130.516C119.669 133.845 118.46 137.59 118.46 141.75V188.934C118.46 213.399 125.534 235.741 139.681 255.959C153.827 276.184 171.802 289.708 193.604 296.532C194.27 296.865 195.019 297.031 195.851 297.031ZM228.529 155.371C220.48 147.322 209.563 142.8 198.18 142.8C186.797 142.8 175.88 147.322 167.831 155.371C159.782 163.42 155.26 174.337 155.26 185.72V221.482L155.284 222.407C155.478 225.886 156.757 229.218 158.94 231.934C161.123 234.65 164.102 236.615 167.458 237.552C170.814 238.49 174.38 238.354 177.655 237.162C180.93 235.971 183.75 233.785 185.719 230.91C186.965 233.116 188.774 234.952 190.963 236.229C193.151 237.507 195.639 238.18 198.173 238.18C200.707 238.18 203.195 237.507 205.383 236.229C207.572 234.952 209.381 233.116 210.627 230.91C212.639 233.855 215.541 236.078 218.909 237.253C222.277 238.429 225.932 238.494 229.34 237.441C232.748 236.387 235.728 234.269 237.844 231.398C239.961 228.527 241.102 225.053 241.1 221.487V185.72C241.1 174.337 236.578 163.42 228.529 155.371ZM174.983 161.714C181.208 155.699 189.525 152.338 198.18 152.338C207.034 152.338 215.524 155.855 221.785 162.115C228.045 168.376 231.562 176.866 231.562 185.72V221.487L231.534 222.173C231.393 223.637 230.805 225.023 229.849 226.14C228.892 227.258 227.615 228.054 226.19 228.419C224.765 228.785 223.263 228.702 221.887 228.182C220.511 227.663 219.328 226.732 218.5 225.516L218.038 224.896C217.058 223.688 215.798 222.738 214.367 222.128C212.936 221.519 211.378 221.269 209.828 221.399C208.278 221.53 206.783 222.038 205.475 222.878C204.166 223.719 203.083 224.867 202.319 226.222C201.903 226.956 201.299 227.567 200.57 227.992C199.84 228.416 199.011 228.639 198.166 228.637C197.322 228.636 196.494 228.41 195.765 227.983C195.037 227.556 194.435 226.944 194.022 226.208C193.224 224.797 192.079 223.613 190.697 222.768C189.314 221.922 187.739 221.443 186.119 221.375C184.5 221.307 182.89 221.653 181.442 222.38C179.993 223.107 178.754 224.192 177.841 225.531L177.421 226.084C176.499 227.179 175.269 227.973 173.891 228.361C172.513 228.75 171.05 228.716 169.691 228.264C168.332 227.812 167.14 226.963 166.27 225.826C165.399 224.689 164.89 223.317 164.808 221.887L164.798 221.229V185.72L164.817 184.575C165.114 175.925 168.759 167.728 174.983 161.714ZM211.836 208.577C215.311 205.014 217.256 200.234 217.256 195.258H207.718C207.718 197.787 206.713 200.213 204.924 202.002C203.136 203.791 200.71 204.795 198.18 204.795C195.651 204.795 193.225 203.791 191.436 202.002C189.647 200.213 188.642 197.787 188.642 195.258H179.105L179.128 196.211C179.377 201.182 181.559 205.858 185.207 209.243C188.855 212.627 193.682 214.452 198.657 214.328C203.632 214.203 208.362 212.139 211.836 208.577Z" fill="white"/>
<rect x="7.54348" y="7.04348" width="381.913" height="381.913" rx="190.957" stroke="white" stroke-width="13.913"/>
<defs>
<linearGradient id="paint0_linear_1829_16631" x1="330.52" y1="71.96" x2="14.5" y2="362.22" gradientUnits="userSpaceOnUse">
<stop stop-color="#FF6871"/>
<stop offset="0.222952" stop-color="#F56CB7"/>
<stop offset="0.46898" stop-color="#CB70FD"/>
<stop offset="0.651033" stop-color="#9E96FF"/>
<stop offset="1" stop-color="#56FDA4"/>
</linearGradient>
</defs>
</svg>
